<svg xmlns="http://www.w3.org/2000/svg" viewBox="0 0 128 64">
<ellipse cx="66" cy="55" rx="52" ry="6" fill="#000000" opacity="0.18"/><path d="M14 44 L20 26 Q24 20 34 20 L84 20 Q100 20 112 30 L118 40 Q118 46 112 46 L20 46 Q14 46 14 44 Z" fill="#5fce3f" stroke="#26313a" stroke-width="2"/><path d="M40 24 L74 24 Q84 24 92 30 L92 34 L40 34 Z" fill="#bfe8ff" stroke="#26313a" stroke-width="1.2" opacity="0.9"/>
<circle cx="34" cy="49" r="8" fill="#26313a"/><circle cx="34" cy="49" r="3.5" fill="#5b6670"/><circle cx="96" cy="49" r="8" fill="#26313a"/><circle cx="96" cy="49" r="3.5" fill="#5b6670"/>
<polygon points="77,14 86,7 95,14" fill="#50af35"/>
<circle cx="86" cy="22" r="9.5" fill="#c9f2b0" stroke="#26313a" stroke-width="1.5"/>
<circle cx="89" cy="21" r="2.1" fill="#26313a"/>
<circle cx="92" cy="26" r="1.6" fill="#aacd95"/>
<polygon points="78,6 82,12 86,4 90,12 94,6 94,14 78,14" fill="#ffd23f" stroke="#b8860b" stroke-width="1"/>
<polygon points="18.0,5.0 19.9,9.5 24.7,9.8 21.0,13.0 22.1,17.7 18.0,15.2 13.9,17.7 15.0,13.0 11.3,9.8 16.1,9.5" fill="#ffd23f"/>
<circle cx="30" cy="8" r="2.4" fill="#ff3b30"/>
<circle cx="48" cy="6" r="2.4" fill="#2bbfae"/>
<circle cx="108" cy="10" r="2.4" fill="#ff9f1c"/>
<circle cx="118" cy="30" r="2.4" fill="#7a5fce"/>
</svg>